# xmcd CD database file
#
# Track frame offsets:
#	150
#	29909
#	46834
#	66151
#	101566
#	123918
#	160412
#	188483
#	222027
#	254904
#
# Disc length: 3576 seconds
#
# Revision: 0
# Processed by: cddbd v1.5PL3 Copyright (c) Steve Scherf et al.
# Submitted via: CDex 1.50
#
DISCID=900df60a
DTITLE=Jos Van Beest trio - Swingin' Softly
DYEAR=1900
DGENRE=Jazz
TTITLE0=Stella by starlight
TTITLE1=Telkens weer
TTITLE2=You are the sunshine of my life
TTITLE3=Autumn Leaves
TTITLE4=Have you met miss Jones
TTITLE5=Manha de Carnaval
TTITLE6=Stain Doll
TTITLE7=Here's that rainy day
TTITLE8=Flamingo
TTITLE9=Dreamland
EXTD=
EXTT0=
EXTT1=
EXTT2=
EXTT3=
EXTT4=
EXTT5=
EXTT6=
EXTT7=
EXTT8=
EXTT9=
PLAYORDER=
